<svg width="14" height="13" viewBox="0 0 14 13" fill="none" xmlns="http://www.w3.org/2000/svg">
<path d="M9.42188 2.46875C9.32812 2.375 9.1875 2.375 9.09375 2.46875L3.98438 7.57812L3.75 9.75781C3.70312 10.0391 3.96094 10.2969 4.24219 10.25L6.42188 10.0156L11.5312 4.90625C11.625 4.8125 11.625 4.67188 11.5312 4.57812L9.42188 2.46875ZM13.2188 1.92969L12.0703 0.78125C11.7188 0.429688 11.1328 0.429688 10.7812 0.78125L9.96094 1.60156C9.86719 1.69531 9.86719 1.83594 9.96094 1.92969L12.0703 4.03906C12.1641 4.13281 12.3047 4.13281 12.3984 4.03906L13.2188 3.21875C13.5703 2.86719 13.5703 2.28125 13.2188 1.92969ZM9 8.63281V11H1.5V3.5H6.86719C6.96094 3.5 7.03125 3.47656 7.07812 3.42969L8.01562 2.49219C8.17969 2.30469 8.0625 2 7.80469 2H1.125C0.492188 2 0 2.51562 0 3.125V11.375C0 12.0078 0.492188 12.5 1.125 12.5H9.375C9.98438 12.5 10.5 12.0078 10.5 11.375V7.69531C10.5 7.4375 10.1953 7.32031 10.0078 7.48438L9.07031 8.42188C9.02344 8.46875 9 8.53906 9 8.63281Z" fill="#868E96"/>
</svg>
