<svg width="11" height="13" viewBox="0 0 11 13" fill="none" xmlns="http://www.w3.org/2000/svg">
<path d="M10.125 1.25H7.3125L7.07812 0.828125C6.98438 0.640625 6.79688 0.5 6.58594 0.5H3.89062C3.67969 0.5 3.49219 0.640625 3.39844 0.828125L3.1875 1.25H0.375C0.164062 1.25 0 1.4375 0 1.625V2.375C0 2.58594 0.164062 2.75 0.375 2.75H10.125C10.3125 2.75 10.5 2.58594 10.5 2.375V1.625C10.5 1.4375 10.3125 1.25 10.125 1.25ZM1.24219 11.4453C1.26562 12.0547 1.75781 12.5 2.36719 12.5H8.10938C8.71875 12.5 9.21094 12.0547 9.23438 11.4453L9.75 3.5H0.75L1.24219 11.4453Z" fill="#868E96"/>
</svg>
